<svg xmlns="http://www.w3.org/2000/svg" viewBox="0 0 1200 675">
  <defs>
    <linearGradient id="bg" x1="0%" y1="0%" x2="100%" y2="100%">
      <stop offset="0%" stop-color="#eef7ff"/>
      <stop offset="100%" stop-color="#f6e9ff"/>
    </linearGradient>
  </defs>
  <rect width="1200" height="675" rx="40" fill="url(#bg)"/>
  <rect x="150" y="160" width="560" height="420" rx="38" fill="#ffffff" opacity="0.95"/>
  <rect x="190" y="220" width="500" height="44" rx="20" fill="#d7c2ff"/>
  <rect x="190" y="292" width="180" height="24" rx="12" fill="#f9f2ff"/>
  <rect x="190" y="336" width="380" height="24" rx="12" fill="#f9f2ff"/>
  <rect x="190" y="380" width="260" height="24" rx="12" fill="#f9f2ff"/>
  <rect x="190" y="424" width="300" height="24" rx="12" fill="#f9f2ff"/>
  <rect x="190" y="468" width="360" height="24" rx="12" fill="#f9f2ff"/>
  <rect x="840" y="220" width="200" height="160" rx="34" fill="#fff5e6" stroke="#d0b4ff" stroke-width="8"/>
  <circle cx="940" cy="320" r="56" fill="#cda6ff"/>
  <path d="M900 320h80" stroke="#ffffff" stroke-width="8" stroke-linecap="round"/>
  <path d="M940 280v80" stroke="#ffffff" stroke-width="8" stroke-linecap="round"/>
  <rect x="190" y="90" width="180" height="66" rx="32" fill="#ffffff" opacity="0.95"/>
  <text x="220" y="132" font-family="Inter, sans-serif" font-size="42" fill="#5a2d90">Agenda</text>
  <rect x="780" y="500" width="180" height="120" rx="36" fill="#ffffff" opacity="0.95"/>
  <path d="M830 540h80" stroke="#d7c2ff" stroke-width="12" stroke-linecap="round"/>
  <circle cx="860" cy="590" r="24" fill="#d7c2ff"/>
</svg>
