<svg xmlns="http://www.w3.org/2000/svg" viewBox="0 0 1200 675">
  <defs>
    <linearGradient id="bg" x1="0%" y1="0%" x2="100%" y2="100%">
      <stop offset="0%" stop-color="#fff6e5"/>
      <stop offset="100%" stop-color="#f4e8ff"/>
    </linearGradient>
  </defs>
  <rect width="1200" height="675" rx="40" fill="url(#bg)"/>
  <rect x="160" y="160" width="470" height="380" rx="40" fill="#ffffff" opacity="0.95"/>
  <rect x="220" y="220" width="370" height="40" rx="20" fill="#f4d7ff"/>
  <rect x="220" y="280" width="310" height="24" rx="12" fill="#f9f2ff"/>
  <rect x="220" y="330" width="260" height="24" rx="12" fill="#f9f2ff"/>
  <rect x="220" y="380" width="330" height="24" rx="12" fill="#f9f2ff"/>
  <rect x="220" y="430" width="240" height="24" rx="12" fill="#f9f2ff"/>
  <rect x="760" y="180" width="220" height="280" rx="40" fill="#ffffff" opacity="0.95"/>
  <path d="M760 470h220v20H760z" fill="#fee8d8"/>
  <rect x="820" y="220" width="120" height="60" rx="30" fill="#c29ef5"/>
  <path d="M860 260l20 20 40-40" stroke="#ffffff" stroke-width="18" stroke-linecap="round" fill="none"/>
  <path d="M820 330h120" stroke="#d7c2ff" stroke-width="16" stroke-linecap="round"/>
  <path d="M820 380h80" stroke="#d7c2ff" stroke-width="16" stroke-linecap="round"/>
  <text x="240" y="140" font-family="Inter, sans-serif" font-size="42" fill="#7a4ea6">Receitas</text>
  <circle cx="830" cy="430" r="56" fill="#f5d4ff"/>
  <text x="815" y="442" font-family="Inter, sans-serif" font-size="42" fill="#7a4ea6">+</text>
</svg>
