<svg xmlns="http://www.w3.org/2000/svg" viewBox="0 0 1200 675">
  <defs>
    <linearGradient id="grad" x1="0%" y1="0%" x2="100%" y2="100%">
      <stop offset="0%" stop-color="#f8f0ff"/>
      <stop offset="100%" stop-color="#ffe6d7"/>
    </linearGradient>
  </defs>
  <rect width="1200" height="675" rx="40" fill="url(#grad)"/>
  <circle cx="320" cy="250" r="120" fill="#d8b4ff" opacity="0.9"/>
  <circle cx="500" cy="200" r="88" fill="#ffffff" opacity="0.8"/>
  <path d="M780 190c-46 0-83 37-83 83 0 46 37 83 83 83s83-37 83-83c0-46-37-83-83-83Zm0 124a41 41 0 1 1 0-82 41 41 0 0 1 0 82Z" fill="#a476e6"/>
  <rect x="210" y="380" width="730" height="220" rx="34" fill="#ffffff" opacity="0.9"/>
  <path d="M314 440h245v26H314zM314 498h430v26H314zM314 556h190v26H314z" fill="#cda6ff"/>
  <path d="M900 410h110v110h-110z" fill="#f7d7d0" rx="28"/>
  <path d="M918 428h74v20h-74zM918 462h74v20h-74zM918 496h74v20h-74z" fill="#cda6ff"/>
  <path d="M480 110c24-40 74-56 114-32 40 24 56 74 32 114s-74 56-114 32c-40-24-56-74-32-114Z" fill="#f7d7d0" opacity="0.9"/>
  <text x="260" y="200" font-family="Inter, sans-serif" font-size="42" fill="#6e4c98">Novas tendências</text>
</svg>
