<svg xmlns="http://www.w3.org/2000/svg" viewBox="0 0 1200 675">
  <defs>
    <linearGradient id="grad1" x1="0%" y1="0%" x2="100%" y2="100%">
      <stop offset="0%" stop-color="#f6d3b0"/>
      <stop offset="100%" stop-color="#e5b4f9"/>
    </linearGradient>
    <linearGradient id="grad2" x1="0%" y1="0%" x2="100%" y2="100%">
      <stop offset="0%" stop-color="#fff2e5"/>
      <stop offset="100%" stop-color="#f3e7ff"/>
    </linearGradient>
  </defs>
  <rect width="1200" height="675" rx="40" fill="url(#grad1)"/>
  <rect x="90" y="220" width="420" height="360" rx="36" fill="url(#grad2)"/>
  <path d="M160 320c0-35 28-64 64-64h184c35 0 64 29 64 64v112c0 35-28 64-64 64H224c-35 0-64-29-64-64V320Z" fill="#ffffff" opacity="0.95"/>
  <circle cx="300" cy="410" r="52" fill="#d9b2ff"/>
  <rect x="240" y="494" width="120" height="16" rx="8" fill="#d9b2ff"/>
  <path d="M428 270h180v24H428zM428 318h240v24H428zM428 366h170v24H428z" fill="#a570e0" opacity="0.95"/>
  <path d="M705 190c0-20 16-36 36-36h142c20 0 36 16 36 36v108c0 20-16 36-36 36H741c-20 0-36-16-36-36V190Z" fill="#ffffff" opacity="0.95"/>
  <path d="M755 240h102v18H755zM755 278h102v18H755zM755 316h70v18H755z" fill="#d9b2ff"/>
  <circle cx="789" cy="214" r="18" fill="#e4c1ff"/>
  <rect x="280" y="140" width="320" height="34" rx="16" fill="#ffffff" opacity="0.85"/>
  <text x="300" y="165" font-family="Inter, sans-serif" font-size="36" fill="#5a2d90">Mais clientes</text>
</svg>
