<svg width="1920" height="1080" viewBox="0 0 1920 1080" fill="none" xmlns="http://www.w3.org/2000/svg">
  <defs>
    <linearGradient id="sky" x1="0" y1="0" x2="1" y2="1">
      <stop offset="0%" stop-color="#ffffff"/>
      <stop offset="48%" stop-color="#eef7ff"/>
      <stop offset="100%" stop-color="#78c3ff"/>
    </linearGradient>
    <linearGradient id="sea" x1="0" y1="0" x2="1" y2="0">
      <stop offset="0%" stop-color="#e8f4ff"/>
      <stop offset="50%" stop-color="#9bd3ff"/>
      <stop offset="100%" stop-color="#0b63f6"/>
    </linearGradient>
    <linearGradient id="mountain" x1="0" y1="0" x2="1" y2="1">
      <stop offset="0%" stop-color="#c5dcf5"/>
      <stop offset="62%" stop-color="#4d8cc8"/>
      <stop offset="100%" stop-color="#083b78"/>
    </linearGradient>
    <linearGradient id="mountainDark" x1="0" y1="0" x2="1" y2="1">
      <stop offset="0%" stop-color="#7db7e8"/>
      <stop offset="100%" stop-color="#06366f"/>
    </linearGradient>
    <filter id="soft" x="-20%" y="-20%" width="140%" height="140%">
      <feGaussianBlur stdDeviation="12"/>
    </filter>
  </defs>

  <rect width="1920" height="1080" fill="url(#sky)"/>

  <circle cx="1445" cy="170" r="300" fill="#dff1ff" opacity=".55"/>
  <circle cx="1160" cy="305" r="260" fill="#ffffff" opacity=".52" filter="url(#soft)"/>

  <path d="M0 740 C240 660 380 725 560 645 C735 565 850 640 1000 555 C1160 465 1325 560 1475 480 C1650 390 1780 460 1920 410 L1920 1080 L0 1080 Z" fill="#d9ecff" opacity=".75"/>
  <path d="M0 820 C300 735 475 820 705 725 C950 620 1110 740 1320 650 C1575 540 1720 640 1920 590 L1920 1080 L0 1080 Z" fill="url(#sea)" opacity=".58"/>

  <!-- Pão de Açúcar -->
  <path d="M1080 705 C1120 595 1160 535 1212 508 C1280 570 1306 650 1308 770 C1230 790 1158 772 1080 705Z" fill="url(#mountain)" opacity=".95"/>
  <path d="M1212 508 C1283 570 1312 648 1308 770 C1268 735 1250 615 1212 508Z" fill="#0b3d7c" opacity=".28"/>

  <!-- Cristo mountain -->
  <path d="M1505 740 C1540 570 1600 380 1725 302 C1845 455 1880 604 1920 765 L1920 1080 L1455 1080 C1460 930 1475 830 1505 740Z" fill="url(#mountainDark)" opacity=".98"/>
  <path d="M1730 306 C1848 452 1885 606 1920 765 L1920 1080 L1750 1080 C1810 790 1795 535 1730 306Z" fill="#062b5e" opacity=".26"/>

  <!-- Cristo silhouette -->
  <g transform="translate(1695 210)" opacity=".92">
    <path d="M33 0 C47 0 58 12 58 26 C58 40 48 52 33 52 C18 52 8 40 8 26 C8 12 19 0 33 0Z" fill="#0a3973"/>
    <path d="M27 48 H39 L43 142 H23 L27 48Z" fill="#0a3973"/>
    <path d="M-50 67 L115 67 L115 78 L-50 78 Z" fill="#0a3973"/>
    <path d="M20 138 H46 L56 177 H10 L20 138Z" fill="#0a3973"/>
  </g>

  <!-- Cidade -->
  <g opacity=".72">
    <rect x="1010" y="790" width="42" height="120" fill="#ffffff"/>
    <rect x="1065" y="815" width="55" height="95" fill="#eef7ff"/>
    <rect x="1138" y="778" width="48" height="132" fill="#ffffff"/>
    <rect x="1204" y="820" width="62" height="90" fill="#eaf4ff"/>
    <rect x="1292" y="795" width="46" height="115" fill="#ffffff"/>
    <rect x="1360" y="832" width="58" height="78" fill="#eef7ff"/>
    <rect x="1442" y="805" width="50" height="105" fill="#ffffff"/>
  </g>

  <!-- Linhas tech -->
  <path d="M1180 210 C1400 110 1590 155 1920 60" stroke="#ffffff" stroke-width="2" opacity=".62"/>
  <path d="M1180 252 C1420 160 1605 200 1920 120" stroke="#ffffff" stroke-width="1.5" opacity=".5"/>
  <path d="M1110 535 C1380 490 1620 520 1920 435" stroke="#ffffff" stroke-width="1.8" opacity=".55"/>

  <!-- Palmeiras -->
  <g transform="translate(1775 720)" fill="#06366f" opacity=".75">
    <path d="M40 150 L58 150 L50 0 Z"/>
    <path d="M48 18 C-10 20 -50 58 -80 108 C-18 88 25 58 48 18Z"/>
    <path d="M51 20 C105 8 158 30 204 76 C140 70 92 50 51 20Z"/>
    <path d="M50 36 C0 45 -30 90 -45 145 C5 115 37 75 50 36Z"/>
    <path d="M54 38 C110 48 150 94 176 152 C116 122 78 82 54 38Z"/>
  </g>
</svg>